{
  "source": "C:\\Users\\Peter\\Desktop\\stuff\\MIUN\\quantitative_research\\video_compression\\videos\\BVI-HD\\BVI-HD_CDVL_videos\\ORIG\\CarpetCircleFast_1920x1080_60fps.mp4",
  "output": "C:\\Users\\Peter\\Desktop\\stuff\\MIUN\\quantitative_research\\video_compression\\compressed_videos\\BVI-HD\\h264\\1.5\\CarpetCircleFast_1920x1080_60fps_h264.mp4",
  "codec": "h264",
  "ok": "Input #0, mov,mp4,m4a,3gp,3g2,mj2, from 'C:\\Users\\Peter\\Desktop\\stuff\\MIUN\\quantitative_research\\video_compression\\videos\\BVI-HD\\BVI-HD_CDVL_videos\\ORIG\\CarpetCircleFast_1920x1080_60fps.mp4':\n  Metadata:\n    major_brand     : isom\n    minor_version   : 512\n    compatible_brands: isomiso2avc1mp41\n    encoder         : Lavf54.28.101\n  Duration: 00:00:05.00, start: 0.000000, bitrate: 324759 kb/s\n  Stream #0:0[0x1](und): Video: h264 (High 4:4:4 Predictive) (avc1 / 0x31637661), yuv420p(progressive), 1920x1080, 324754 kb/s, 60 fps, 60 tbr, 60 tbn (default)\n    Metadata:\n      handler_name    : VideoHandler\n      vendor_id       : [0][0][0][0]\n[out#0/mp4 @ 000002190c7d79c0] Codec AVOption b:a (set bitrate (in bits/s)) has not been used for any stream. The most likely reason is either wrong type (e.g. a video option with no video streams) or that it is a private option of some decoder which was not actually used for any stream.\nStream mapping:\n  Stream #0:0 -> #0:0 (h264 (native) -> h264 (libx264))\nPress [q] to stop, [?] for help\n[libx264 @ 000002190c751900] using cpu capabilities: MMX2 SSE2Fast SSSE3 SSE4.2 AVX FMA3 BMI2 AVX2\n[libx264 @ 000002190c751900] profile High, level 5.0, 4:2:0, 8-bit\n[libx264 @ 000002190c751900] 264 - core 165 r3222 b35605a - H.264/MPEG-4 AVC codec - Copyleft 2003-2025 - http://www.videolan.org/x264.html - options: cabac=1 ref=5 deblock=1:0:0 analyse=0x3:0x113 me=hex subme=8 psy=1 psy_rd=1.00:0.00 mixed_ref=1 me_range=16 chroma_me=1 trellis=2 8x8dct=1 cqm=0 deadzone=21,11 fast_pskip=1 chroma_qp_offset=-2 threads=18 lookahead_threads=3 sliced_threads=0 nr=0 decimate=1 interlaced=0 bluray_compat=0 constrained_intra=0 bframes=3 b_pyramid=2 b_adapt=1 b_bias=0 direct=3 weightb=1 open_gop=0 weightp=2 keyint=250 keyint_min=25 scenecut=40 intra_refresh=0 rc_lookahead=50 rc=cbr mbtree=1 bitrate=1500 ratetol=1.0 qcomp=0.60 qpmin=0 qpmax=69 qpstep=4 vbv_maxrate=1500 vbv_bufsize=1500 nal_hrd=none filler=0 ip_ratio=1.40 aq=1:1.00\nOutput #0, mp4, to 'C:\\Users\\Peter\\Desktop\\stuff\\MIUN\\quantitative_research\\video_compression\\compressed_videos\\BVI-HD\\h264\\1.5\\CarpetCircleFast_1920x1080_60fps_h264.mp4':\n  Metadata:\n    major_brand     : isom\n    minor_version   : 512\n    compatible_brands: isomiso2avc1mp41\n    encoder         : Lavf62.3.100\n  Stream #0:0(und): Video: h264 (avc1 / 0x31637661), yuv420p(tv, progressive), 1920x1080, q=2-31, 1500 kb/s, 60 fps, 15360 tbn (default)\n    Metadata:\n      encoder         : Lavc62.11.100 libx264\n      handler_name    : VideoHandler\n      vendor_id       : [0][0][0][0]\n    Side data:\n      cpb: bitrate max/min/avg: 1500000/0/1500000 buffer size: 1500000 vbv_delay: N/A\nframe=    0 fps=0.0 q=0.0 size=       0KiB time=N/A bitrate=N/A speed=N/A elapsed=0:00:00.50    \nframe=    0 fps=0.0 q=0.0 size=       0KiB time=N/A bitrate=N/A speed=N/A elapsed=0:00:01.02    \nframe=   30 fps= 19 q=45.0 size=       0KiB time=00:00:00.46 bitrate=   0.8kbits/s speed=0.297x elapsed=0:00:01.57    \nframe=   66 fps= 31 q=44.0 size=       0KiB time=00:00:01.01 bitrate=   0.4kbits/s speed=0.482x elapsed=0:00:02.10    \nframe=   98 fps= 36 q=45.0 size=     256KiB time=00:00:01.53 bitrate=1368.0kbits/s speed=0.57x elapsed=0:00:02.68    \nframe=  126 fps= 39 q=43.0 size=     256KiB time=00:00:02.06 bitrate=1014.9kbits/s speed=0.638x elapsed=0:00:03.24    \nframe=  164 fps= 43 q=43.0 size=     256KiB time=00:00:02.63 bitrate= 796.5kbits/s speed=0.697x elapsed=0:00:03.77    \nframe=  200 fps= 46 q=43.0 size=     256KiB time=00:00:03.23 bitrate= 648.7kbits/s speed=0.746x elapsed=0:00:04.33    \nframe=  222 fps= 46 q=44.0 size=     512KiB time=00:00:03.66 bitrate=1144.0kbits/s speed=0.753x elapsed=0:00:04.86    \nframe=  274 fps= 51 q=41.0 size=     512KiB time=00:00:04.53 bitrate= 925.3kbits/s speed=0.841x elapsed=0:00:05.38    \n[mp4 @ 000002190c7d7ac0] Starting second pass: moving the moov atom to the beginning of the file\n[out#0/mp4 @ 000002190c7d79c0] video:762KiB audio:0KiB subtitle:0KiB other streams:0KiB global headers:0KiB muxing overhead: 0.543977%\nframe=  300 fps= 54 q=-1.0 Lsize=     767KiB time=00:00:04.96 bitrate=1264.4kbits/s speed=0.888x elapsed=0:00:05.59    \n[libx264 @ 000002190c751900] frame I:2     Avg QP:38.36  size:  9234\n[libx264 @ 000002190c751900] frame P:91    Avg QP:39.73  size:  3951\n[libx264 @ 000002190c751900] frame B:207   Avg QP:41.75  size:  1942\n[libx264 @ 000002190c751900] consecutive B-frames:  5.0%  4.0% 15.0% 76.0%\n[libx264 @ 000002190c751900] mb I  I16..4: 67.1% 32.9%  0.0%\n[libx264 @ 000002190c751900] mb P  I16..4: 13.8%  4.2%  0.0%  P16..4: 14.7%  0.2%  0.2%  0.0%  0.0%    skip:66.9%\n[libx264 @ 000002190c751900] mb B  I16..4:  0.1%  0.1%  0.0%  B16..8: 27.8%  0.2%  0.0%  direct: 0.5%  skip:71.3%  L0:42.0% L1:57.7% BI: 0.2%\n[libx264 @ 000002190c751900] 8x8 transform intra:24.7% inter:99.6%\n[libx264 @ 000002190c751900] direct mvs  spatial:95.2% temporal:4.8%\n[libx264 @ 000002190c751900] coded y,uvDC,uvAC intra: 0.9% 21.0% 0.0% inter: 0.2% 2.8% 0.0%\n[libx264 @ 000002190c751900] i16 v,h,dc,p: 46% 20%  5% 29%\n[libx264 @ 000002190c751900] i8 v,h,dc,ddl,ddr,vr,hd,vl,hu:  4%  4% 84%  2%  2%  2%  2%  1%  1%\n[libx264 @ 000002190c751900] i4 v,h,dc,ddl,ddr,vr,hd,vl,hu:  0%  0% 100%  0%  0%  0%  0%  0%  0%\n[libx264 @ 000002190c751900] i8c dc,h,v,p: 91%  1%  6%  1%\n[libx264 @ 000002190c751900] Weighted P-Frames: Y:4.4% UV:4.4%\n[libx264 @ 000002190c751900] ref P L0: 52.0%  7.4% 24.5%  8.8%  6.9%  0.3%\n[libx264 @ 000002190c751900] ref B L0: 83.2% 11.7%  3.9%  1.2%\n[libx264 @ 000002190c751900] ref B L1: 95.7%  4.3%\n[libx264 @ 000002190c751900] kb/s:1247.95\n",
  "seconds": 5.806305170059204,
  "probe_out": {}
}